<?xml version="1.0" standalone="no"?>
<!DOCTYPE svg PUBLIC "-//W3C//DTD SVG 20010904//EN"
 "http://www.w3.org/TR/2001/REC-SVG-20010904/DTD/svg10.dtd">
<svg version="1.0" xmlns="http://www.w3.org/2000/svg"
 width="96.000000pt" height="96.000000pt" viewBox="0 0 96.000000 96.000000"
 preserveAspectRatio="xMidYMid meet">
<metadata>
Created by potrace 1.14, written by Peter Selinger 2001-2017
</metadata>
<g transform="translate(0.000000,96.000000) scale(0.100000,-0.100000)"
fill="#000000" stroke="none">
<path d="M310 860 c0 -6 -12 -15 -26 -21 -21 -7 -31 -6 -45 7 -18 16 -19 16
-19 -3 0 -29 -34 -56 -59 -48 -18 5 -20 3 -17 -17 4 -28 -20 -58 -47 -58 -19
0 -19 -1 -4 -18 22 -24 21 -38 -3 -62 l-20 -20 20 -20 c24 -24 25 -43 4 -61
-15 -12 -14 -14 7 -19 21 -5 24 -11 24 -66 0 -41 6 -70 18 -88 21 -32 74 -66
102 -66 12 0 38 -9 60 -20 22 -11 49 -20 62 -20 19 0 22 -4 17 -28 -8 -39 17
-59 52 -43 22 10 25 16 20 41 -7 35 1 37 101 18 57 -10 69 -9 116 9 28 11 72
26 96 34 62 20 105 74 107 137 2 52 -9 87 -35 117 -10 11 -21 36 -25 56 -19
104 -124 186 -228 176 -29 -3 -63 -8 -75 -12 -18 -6 -21 -4 -16 14 5 19 2 21
-21 17 -30 -5 -56 16 -56 46 0 20 -1 21 -20 3 -17 -15 -24 -16 -45 -7 -14 6
-25 16 -25 22 0 5 -4 10 -10 10 -5 0 -10 -5 -10 -10z"/>
<path d="M757 231 c-24 -41 -22 -69 8 -83 27 -12 55 2 55 29 0 19 -30 83 -39
83 -4 0 -14 -13 -24 -29z"/>
<path d="M235 177 c-20 -38 -18 -65 8 -81 20 -13 50 2 55 27 4 18 -26 87 -38
87 -4 0 -15 -15 -25 -33z"/>
<path d="M581 171 c-25 -48 -26 -74 -5 -95 31 -32 84 -8 84 37 0 26 -32 89
-48 95 -6 2 -20 -15 -31 -37z"/>
</g>
</svg>
